<mxfile host="app.diagrams.net" agent="Mozilla/5.0 (Macintosh; Intel Mac OS X 10_15_7) AppleWebKit/537.36 (KHTML, like Gecko) Chrome/137.0.0.0 Safari/537.36" version="27.1.1">
  <diagram name="Page-1" id="Ao-Xg_ejcrc6PoOitLXK">
    <mxGraphModel dx="1179" dy="758" grid="1" gridSize="10" guides="1" tooltips="1" connect="1" arrows="1" fold="1" page="1" pageScale="1" pageWidth="850" pageHeight="1100" math="0" shadow="0">
      <root>
        <mxCell id="0" />
        <mxCell id="1" parent="0" />
        <mxCell id="ha7GFVBcnOPzVhdbOPqG-1" value="React Front End Application" style="rounded=0;whiteSpace=wrap;html=1;" vertex="1" parent="1">
          <mxGeometry x="360" y="50" width="120" height="60" as="geometry" />
        </mxCell>
        <mxCell id="ha7GFVBcnOPzVhdbOPqG-2" value="Spring Boot as Cloud Gateway&amp;nbsp;&amp;nbsp;" style="rounded=0;whiteSpace=wrap;html=1;" vertex="1" parent="1">
          <mxGeometry x="360" y="160" width="120" height="63" as="geometry" />
        </mxCell>
        <mxCell id="ha7GFVBcnOPzVhdbOPqG-13" style="edgeStyle=orthogonalEdgeStyle;rounded=0;orthogonalLoop=1;jettySize=auto;html=1;exitX=1;exitY=0.5;exitDx=0;exitDy=0;" edge="1" parent="1" source="ha7GFVBcnOPzVhdbOPqG-4" target="ha7GFVBcnOPzVhdbOPqG-14">
          <mxGeometry relative="1" as="geometry">
            <mxPoint x="610" y="470" as="targetPoint" />
          </mxGeometry>
        </mxCell>
        <mxCell id="ha7GFVBcnOPzVhdbOPqG-16" style="edgeStyle=orthogonalEdgeStyle;rounded=0;orthogonalLoop=1;jettySize=auto;html=1;exitX=0.5;exitY=1;exitDx=0;exitDy=0;entryX=0.5;entryY=0;entryDx=0;entryDy=0;" edge="1" parent="1" source="ha7GFVBcnOPzVhdbOPqG-4" target="ha7GFVBcnOPzVhdbOPqG-15">
          <mxGeometry relative="1" as="geometry" />
        </mxCell>
        <mxCell id="ha7GFVBcnOPzVhdbOPqG-4" value="query router agent&amp;nbsp;" style="rhombus;whiteSpace=wrap;html=1;" vertex="1" parent="1">
          <mxGeometry x="340" y="440" width="160" height="80" as="geometry" />
        </mxCell>
        <mxCell id="ha7GFVBcnOPzVhdbOPqG-5" value="" style="endArrow=classic;html=1;rounded=0;" edge="1" parent="1">
          <mxGeometry width="50" height="50" relative="1" as="geometry">
            <mxPoint x="420" y="112" as="sourcePoint" />
            <mxPoint x="420" y="160" as="targetPoint" />
          </mxGeometry>
        </mxCell>
        <mxCell id="ha7GFVBcnOPzVhdbOPqG-7" value="" style="endArrow=classic;html=1;rounded=0;exitX=0.5;exitY=1;exitDx=0;exitDy=0;entryX=0.5;entryY=0;entryDx=0;entryDy=0;" edge="1" parent="1" target="ha7GFVBcnOPzVhdbOPqG-3">
          <mxGeometry width="50" height="50" relative="1" as="geometry">
            <mxPoint x="423.36" y="223" as="sourcePoint" />
            <mxPoint x="416.6400000000002" y="330.9000000000001" as="targetPoint" />
          </mxGeometry>
        </mxCell>
        <mxCell id="ha7GFVBcnOPzVhdbOPqG-9" value="" style="endArrow=classic;html=1;rounded=0;entryX=0.5;entryY=0;entryDx=0;entryDy=0;" edge="1" parent="1" source="ha7GFVBcnOPzVhdbOPqG-3" target="ha7GFVBcnOPzVhdbOPqG-4">
          <mxGeometry width="50" height="50" relative="1" as="geometry">
            <mxPoint x="430" y="350" as="sourcePoint" />
            <mxPoint x="450" y="310" as="targetPoint" />
          </mxGeometry>
        </mxCell>
        <mxCell id="ha7GFVBcnOPzVhdbOPqG-26" style="edgeStyle=orthogonalEdgeStyle;rounded=0;orthogonalLoop=1;jettySize=auto;html=1;exitX=1;exitY=0.5;exitDx=0;exitDy=0;entryX=0;entryY=0.5;entryDx=0;entryDy=0;" edge="1" parent="1" source="ha7GFVBcnOPzVhdbOPqG-14" target="ha7GFVBcnOPzVhdbOPqG-24">
          <mxGeometry relative="1" as="geometry" />
        </mxCell>
        <mxCell id="ha7GFVBcnOPzVhdbOPqG-14" value="document query" style="rounded=1;whiteSpace=wrap;html=1;" vertex="1" parent="1">
          <mxGeometry x="590" y="450" width="120" height="60" as="geometry" />
        </mxCell>
        <mxCell id="ha7GFVBcnOPzVhdbOPqG-18" style="edgeStyle=orthogonalEdgeStyle;rounded=0;orthogonalLoop=1;jettySize=auto;html=1;exitX=0.5;exitY=1;exitDx=0;exitDy=0;" edge="1" parent="1" source="ha7GFVBcnOPzVhdbOPqG-15" target="ha7GFVBcnOPzVhdbOPqG-17">
          <mxGeometry relative="1" as="geometry" />
        </mxCell>
        <mxCell id="ha7GFVBcnOPzVhdbOPqG-15" value="NLP Query&amp;nbsp;" style="rounded=1;whiteSpace=wrap;html=1;" vertex="1" parent="1">
          <mxGeometry x="360" y="580" width="120" height="60" as="geometry" />
        </mxCell>
        <mxCell id="ha7GFVBcnOPzVhdbOPqG-17" value="Databricks" style="rounded=1;whiteSpace=wrap;html=1;" vertex="1" parent="1">
          <mxGeometry x="360" y="680" width="120" height="60" as="geometry" />
        </mxCell>
        <mxCell id="ha7GFVBcnOPzVhdbOPqG-19" value="Actor" style="shape=umlActor;verticalLabelPosition=bottom;verticalAlign=top;html=1;outlineConnect=0;" vertex="1" parent="1">
          <mxGeometry x="160" y="50" width="40" height="60" as="geometry" />
        </mxCell>
        <mxCell id="ha7GFVBcnOPzVhdbOPqG-20" value="" style="endArrow=classic;html=1;rounded=0;entryX=0;entryY=0.5;entryDx=0;entryDy=0;" edge="1" parent="1" source="ha7GFVBcnOPzVhdbOPqG-19" target="ha7GFVBcnOPzVhdbOPqG-1">
          <mxGeometry width="50" height="50" relative="1" as="geometry">
            <mxPoint x="500" y="310" as="sourcePoint" />
            <mxPoint x="550" y="260" as="targetPoint" />
          </mxGeometry>
        </mxCell>
        <mxCell id="ha7GFVBcnOPzVhdbOPqG-22" value="Will forward authenticated requests to &lt;br&gt;new module ai_services" style="text;html=1;align=center;verticalAlign=middle;resizable=0;points=[];autosize=1;strokeColor=none;fillColor=none;" vertex="1" parent="1">
          <mxGeometry x="425" y="250" width="220" height="40" as="geometry" />
        </mxCell>
        <mxCell id="ha7GFVBcnOPzVhdbOPqG-23" value="" style="endArrow=classic;html=1;rounded=0;entryX=0.5;entryY=0;entryDx=0;entryDy=0;" edge="1" parent="1" target="ha7GFVBcnOPzVhdbOPqG-3">
          <mxGeometry width="50" height="50" relative="1" as="geometry">
            <mxPoint x="430" y="350" as="sourcePoint" />
            <mxPoint x="430" y="430" as="targetPoint" />
          </mxGeometry>
        </mxCell>
        <mxCell id="ha7GFVBcnOPzVhdbOPqG-3" value="Langchain" style="rounded=1;whiteSpace=wrap;html=1;" vertex="1" parent="1">
          <mxGeometry x="360" y="330" width="120" height="60" as="geometry" />
        </mxCell>
        <mxCell id="ha7GFVBcnOPzVhdbOPqG-24" value="Azure AI search" style="rounded=0;whiteSpace=wrap;html=1;" vertex="1" parent="1">
          <mxGeometry x="820" y="450" width="120" height="60" as="geometry" />
        </mxCell>
      </root>
    </mxGraphModel>
  </diagram>
</mxfile>
